<?xml version="1.0" encoding="UTF-8" standalone="no"?><svg xmlns="http://www.w3.org/2000/svg" xmlns:xlink="http://www.w3.org/1999/xlink" contentScriptType="application/ecmascript" contentStyleType="text/css" height="400.8px" preserveAspectRatio="none" style="width:505px;height:400px;" version="1.1" viewBox="0 0 505 400" width="505.2px" zoomAndPan="magnify"><defs><filter height="300%" id="f1iqusw8vfrvoi" width="300%" x="-1" y="-1"><feGaussianBlur result="blurOut" stdDeviation="2.4"/><feColorMatrix in="blurOut" result="blurOut2" type="matrix" values="0 0 0 0 0 0 0 0 0 0 0 0 0 0 0 0 0 0 .4 0"/><feOffset dx="4.8" dy="4.8" in="blurOut2" result="blurOut3"/><feBlend in="SourceGraphic" in2="blurOut3" mode="normal"/></filter></defs><g><text fill="#000000" font-family="sans-serif" font-size="21.6" lengthAdjust="spacingAndGlyphs" textLength="282" x="118.8" y="20.0496">University - Class Diagram</text><!--MD5=[d6181cb537bdc20c0a3007a98a56832d]
class Student--><rect fill="#FEFECE" filter="url(#f1iqusw8vfrvoi)" height="72.9656" id="Student" style="stroke: #A80036; stroke-width: 1.7999999999999998;" width="122.4" x="240" y="184.7438"/><ellipse cx="268.8" cy="203.9438" fill="#ADD1B2" rx="13.2" ry="13.2" style="stroke: #A80036; stroke-width: 1.2;"/><path d="M273.0188,208.7813 L273.0188,211.2188 Q271.2375,211.95 269.0438,211.95 Q265.7813,211.95 264.0375,209.8688 Q262.2938,207.7687 262.2938,204.0375 Q262.2938,200.4375 264.1875,198.3 Q266.0813,196.1437 269.3438,196.1437 Q271.6312,196.1437 273.7125,197.25 L272.5687,199.5375 Q270.7688,198.6 269.3438,198.6 Q267.4125,198.6 266.2313,200.0625 Q265.0687,201.5063 265.0687,204.0563 Q265.0687,206.7563 266.1563,208.125 Q267.2625,209.4938 269.3438,209.4938 Q270.5813,209.4938 273.0188,208.7813 Z "/><text fill="#000000" font-family="sans-serif" font-size="14.4" lengthAdjust="spacingAndGlyphs" textLength="60" x="288" y="208.9289">Student</text><line style="stroke: #A80036; stroke-width: 1.7999999999999998;" x1="241.2" x2="361.2" y1="223.1437" y2="223.1437"/><line style="stroke: #A80036; stroke-width: 1.7999999999999998;" x1="241.2" x2="361.2" y1="232.7437" y2="232.7437"/><ellipse cx="253.2" cy="245.9438" fill="#84BE84" rx="3.6" ry="3.6" style="stroke: #038048; stroke-width: 1.2;"/><text fill="#000000" font-family="sans-serif" font-size="13.2" lengthAdjust="spacingAndGlyphs" textLength="91.2" x="264" y="249.7963">bool IsLegal()</text><!--MD5=[ceb691f32fe5b17b6319df2a33928174]
class Undergraduate--><rect fill="#FEFECE" filter="url(#f1iqusw8vfrvoi)" height="57.6" id="Undergraduate" style="stroke: #A80036; stroke-width: 1.7999999999999998;" width="153.6" x="138" y="331.1438"/><ellipse cx="156" cy="350.3438" fill="#ADD1B2" rx="13.2" ry="13.2" style="stroke: #A80036; stroke-width: 1.2;"/><path d="M160.2188,355.1813 L160.2188,357.6188 Q158.4375,358.35 156.2438,358.35 Q152.9813,358.35 151.2375,356.2688 Q149.4938,354.1688 149.4938,350.4375 Q149.4938,346.8375 151.3875,344.7 Q153.2813,342.5438 156.5438,342.5438 Q158.8312,342.5438 160.9125,343.65 L159.7687,345.9375 Q157.9688,345 156.5438,345 Q154.6125,345 153.4313,346.4625 Q152.2687,347.9063 152.2687,350.4563 Q152.2687,353.1563 153.3563,354.525 Q154.4625,355.8938 156.5438,355.8938 Q157.7813,355.8938 160.2188,355.1813 Z "/><text fill="#000000" font-family="sans-serif" font-size="14.4" lengthAdjust="spacingAndGlyphs" textLength="115.2" x="172.8" y="355.3289">Undergraduate</text><line style="stroke: #A80036; stroke-width: 1.7999999999999998;" x1="139.2" x2="290.4" y1="369.5438" y2="369.5438"/><line style="stroke: #A80036; stroke-width: 1.7999999999999998;" x1="139.2" x2="290.4" y1="379.1438" y2="379.1438"/><!--MD5=[e95e1837123b9c1df7881e144a7e72a9]
class Graduate--><rect fill="#FEFECE" filter="url(#f1iqusw8vfrvoi)" height="57.6" id="Graduate" style="stroke: #A80036; stroke-width: 1.7999999999999998;" width="109.2" x="334.2" y="331.1438"/><ellipse cx="352.2" cy="350.3438" fill="#ADD1B2" rx="13.2" ry="13.2" style="stroke: #A80036; stroke-width: 1.2;"/><path d="M356.4188,355.1813 L356.4188,357.6188 Q354.6375,358.35 352.4437,358.35 Q349.1813,358.35 347.4375,356.2688 Q345.6937,354.1688 345.6937,350.4375 Q345.6937,346.8375 347.5875,344.7 Q349.4813,342.5438 352.7438,342.5438 Q355.0313,342.5438 357.1125,343.65 L355.9688,345.9375 Q354.1688,345 352.7438,345 Q350.8125,345 349.6312,346.4625 Q348.4688,347.9063 348.4688,350.4563 Q348.4688,353.1563 349.5563,354.525 Q350.6625,355.8938 352.7438,355.8938 Q353.9813,355.8938 356.4188,355.1813 Z "/><text fill="#000000" font-family="sans-serif" font-size="14.4" lengthAdjust="spacingAndGlyphs" textLength="70.8" x="369" y="355.3289">Graduate</text><line style="stroke: #A80036; stroke-width: 1.7999999999999998;" x1="335.4" x2="442.2" y1="369.5438" y2="369.5438"/><line style="stroke: #A80036; stroke-width: 1.7999999999999998;" x1="335.4" x2="442.2" y1="379.1438" y2="379.1438"/><!--MD5=[9f93fc4de6aba39e63ecc8b5110a2944]
class University--><rect fill="#FEFECE" filter="url(#f1iqusw8vfrvoi)" height="57.6" id="University" style="stroke: #A80036; stroke-width: 1.7999999999999998;" width="110.4" x="7.2" y="192.5438"/><ellipse cx="25.2" cy="211.7438" fill="#ADD1B2" rx="13.2" ry="13.2" style="stroke: #A80036; stroke-width: 1.2;"/><path d="M29.4188,216.5812 L29.4188,219.0187 Q27.6375,219.75 25.4437,219.75 Q22.1813,219.75 20.4375,217.6688 Q18.6937,215.5688 18.6937,211.8375 Q18.6937,208.2375 20.5875,206.1 Q22.4813,203.9438 25.7438,203.9438 Q28.0313,203.9438 30.1125,205.05 L28.9688,207.3375 Q27.1688,206.4 25.7438,206.4 Q23.8125,206.4 22.6312,207.8625 Q21.4688,209.3063 21.4688,211.8563 Q21.4688,214.5563 22.5563,215.925 Q23.6625,217.2938 25.7438,217.2938 Q26.9813,217.2938 29.4188,216.5812 Z "/><text fill="#000000" font-family="sans-serif" font-size="14.4" lengthAdjust="spacingAndGlyphs" textLength="72" x="42" y="216.7289">University</text><line style="stroke: #A80036; stroke-width: 1.7999999999999998;" x1="8.4" x2="116.4" y1="230.9438" y2="230.9438"/><line style="stroke: #A80036; stroke-width: 1.7999999999999998;" x1="8.4" x2="116.4" y1="240.5438" y2="240.5438"/><!--MD5=[9fdb31a39a426786c5e7b5059db36e4e]
class Major--><rect fill="#FEFECE" filter="url(#f1iqusw8vfrvoi)" height="57.6" id="Major" style="stroke: #A80036; stroke-width: 1.7999999999999998;" width="79.2" x="207.6" y="34.7438"/><ellipse cx="225.6" cy="53.9438" fill="#ADD1B2" rx="13.2" ry="13.2" style="stroke: #A80036; stroke-width: 1.2;"/><path d="M229.8188,58.7813 L229.8188,61.2188 Q228.0375,61.95 225.8438,61.95 Q222.5812,61.95 220.8375,59.8688 Q219.0938,57.7688 219.0938,54.0375 Q219.0938,50.4375 220.9875,48.3 Q222.8813,46.1438 226.1437,46.1438 Q228.4313,46.1438 230.5125,47.25 L229.3688,49.5375 Q227.5688,48.6 226.1437,48.6 Q224.2125,48.6 223.0313,50.0625 Q221.8688,51.5063 221.8688,54.0563 Q221.8688,56.7563 222.9562,58.125 Q224.0625,59.4938 226.1437,59.4938 Q227.3813,59.4938 229.8188,58.7813 Z "/><text fill="#000000" font-family="sans-serif" font-size="14.4" lengthAdjust="spacingAndGlyphs" textLength="40.8" x="242.4" y="58.9289">Major</text><line style="stroke: #A80036; stroke-width: 1.7999999999999998;" x1="208.8" x2="285.6" y1="73.1438" y2="73.1438"/><line style="stroke: #A80036; stroke-width: 1.7999999999999998;" x1="208.8" x2="285.6" y1="82.7437" y2="82.7437"/><!--MD5=[fe79217f40e74d8d9110552c4d8e5122]
class ID--><rect fill="#FEFECE" filter="url(#f1iqusw8vfrvoi)" height="57.6" id="ID" style="stroke: #A80036; stroke-width: 1.7999999999999998;" width="52.8" x="328.8" y="34.7438"/><ellipse cx="346.8" cy="53.9438" fill="#ADD1B2" rx="13.2" ry="13.2" style="stroke: #A80036; stroke-width: 1.2;"/><path d="M351.0188,58.7813 L351.0188,61.2188 Q349.2375,61.95 347.0438,61.95 Q343.7813,61.95 342.0375,59.8688 Q340.2938,57.7688 340.2938,54.0375 Q340.2938,50.4375 342.1875,48.3 Q344.0813,46.1438 347.3438,46.1438 Q349.6312,46.1438 351.7125,47.25 L350.5687,49.5375 Q348.7688,48.6 347.3438,48.6 Q345.4125,48.6 344.2313,50.0625 Q343.0687,51.5063 343.0687,54.0563 Q343.0687,56.7563 344.1563,58.125 Q345.2625,59.4938 347.3438,59.4938 Q348.5813,59.4938 351.0188,58.7813 Z "/><text fill="#000000" font-family="sans-serif" font-size="14.4" lengthAdjust="spacingAndGlyphs" textLength="14.4" x="363.6" y="58.9289">ID</text><line style="stroke: #A80036; stroke-width: 1.7999999999999998;" x1="330" x2="380.4" y1="73.1438" y2="73.1438"/><line style="stroke: #A80036; stroke-width: 1.7999999999999998;" x1="330" x2="380.4" y1="82.7437" y2="82.7437"/><!--MD5=[cccb401858a704bc77648edc8157e2b7]
link University to Student--><path d="M117.78,221.3438 C154.296,221.3438 202.152,221.3438 239.82,221.3438 " fill="none" id="University-Student" style="stroke: #A80036; stroke-width: 1.2;"/><text fill="#000000" font-family="sans-serif" font-size="15.6" lengthAdjust="spacingAndGlyphs" textLength="78" x="139.8" y="213.024">registered</text><text fill="#000000" font-family="sans-serif" font-size="15.6" lengthAdjust="spacingAndGlyphs" textLength="28.8" x="127.1567" y="237.0441">0..1</text><text fill="#000000" font-family="sans-serif" font-size="15.6" lengthAdjust="spacingAndGlyphs" textLength="27.6" x="202.5876" y="237.0024">0..*</text><!--MD5=[5402454beb7b06d4554afc332ccc0dee]
reverse link Student to Undergraduate--><path d="M265.824,278.3198 C254.364,296.3798 242.136,315.6518 232.536,330.7958 " fill="none" id="Student&lt;-Undergraduate" style="stroke: #A80036; stroke-width: 1.2;"/><polygon fill="none" points="258.78,273.7358,278.724,257.9677,272.964,282.7358,258.78,273.7358" style="stroke: #A80036; stroke-width: 1.2;"/><!--MD5=[8a5cdb7fdb14c021ddbd1bd4f4a1900e]
reverse link Student to Graduate--><path d="M337.068,278.3198 C348.696,296.3798 361.08,315.6518 370.824,330.7958 " fill="none" id="Student&lt;-Graduate" style="stroke: #A80036; stroke-width: 1.2;"/><polygon fill="none" points="329.904,282.6998,323.988,257.9677,344.04,273.6158,329.904,282.6998" style="stroke: #A80036; stroke-width: 1.2;"/><!--MD5=[250ef87083815e511155add9c4968c53]
link ID to Student--><path d="M345.54,92.5238 C338.124,113.8837 327.672,143.9558 318.78,169.5518 " fill="none" id="ID-&gt;Student" style="stroke: #A80036; stroke-width: 1.2;"/><polygon fill="#A80036" points="313.62,184.3958,320.5182,179.1713,318.3489,170.7944,311.4506,176.0188,313.62,184.3958" style="stroke: #A80036; stroke-width: 1.2;"/><text fill="#000000" font-family="sans-serif" font-size="15.6" lengthAdjust="spacingAndGlyphs" textLength="9.6" x="332.4154" y="116.2811">1</text><text fill="#000000" font-family="sans-serif" font-size="15.6" lengthAdjust="spacingAndGlyphs" textLength="9.6" x="305.5916" y="171.4399">1</text><!--MD5=[fbbdf215ac8fe2a443a4c6dce2dc2652]
link Major to Student--><path d="M253.692,92.6798 C257.784,109.1678 263.532,130.3598 270,148.7438 C274.176,160.6117 279.432,173.2837 284.448,184.5998 " fill="none" id="Major-Student" style="stroke: #A80036; stroke-width: 1.2;"/><text fill="#000000" font-family="sans-serif" font-size="15.6" lengthAdjust="spacingAndGlyphs" textLength="44.4" x="271.2" y="144.024">major</text><text fill="#000000" font-family="sans-serif" font-size="15.6" lengthAdjust="spacingAndGlyphs" textLength="9.6" x="244.5044" y="116.4751">1</text><text fill="#000000" font-family="sans-serif" font-size="15.6" lengthAdjust="spacingAndGlyphs" textLength="27.6" x="250.5466" y="171.6859">0..*</text><!--MD5=[16e7c306992a3cd1e0c31573e53d2284]
link Student to Student--><path d="M362.652,207.8678 C385.548,207.4357 404.4,211.9238 404.4,221.3438 C404.4,230.7638 385.548,235.2518 362.652,234.8197 " fill="none" id="Student-Student" style="stroke: #A80036; stroke-width: 1.2;"/><text fill="#000000" font-family="sans-serif" font-size="15.6" lengthAdjust="spacingAndGlyphs" textLength="79.2" x="411.6" y="226.824">classmate</text><text fill="#000000" font-family="sans-serif" font-size="15.6" lengthAdjust="spacingAndGlyphs" textLength="27.6" x="371.8233" y="201.6328">0..*</text><text fill="#000000" font-family="sans-serif" font-size="15.6" lengthAdjust="spacingAndGlyphs" textLength="27.6" x="371.8233" y="231.8695">0..*</text><!--MD5=[87398fb2eb8a024bd2a767ade1c5ec64]
@startuml

scale 1.2
title University - Class Diagram

class Student {
  +bool IsLegal()
}

class Undergraduate { }
class Graduate { }

class University { }
class Major { }
class ID { }

University "0..1" - "0..*" Student : registered

Undergraduate -up-|> Student
Graduate -up-|> Student

Student "1" *-up- "1" ID
Student "0..*" -up- "1" Major : major

Student "0..*" - - "0..*" Student : classmate

@enduml

PlantUML version 1.2019.13(Tue Dec 10 18:18:29 CET 2019)
(GPL source distribution)
Java Runtime: OpenJDK Runtime Environment
JVM: OpenJDK 64-Bit Server VM
Java Version: 1.8.0_242-b08
Operating System: Linux
Default Encoding: UTF-8
Language: en
Country: DK
--></g></svg>