<svg xmlns="http://www.w3.org/2000/svg" xmlns:xlink="http://www.w3.org/1999/xlink" viewBox="0 0 529.167 143.476">
  <defs>
    <linearGradient id="a">
      <stop offset="0" stop-color="#c3dcda"/>
      <stop offset="1" stop-color="#c3dcda" stop-opacity="0"/>
    </linearGradient>
    <linearGradient id="b" x1="109.759" x2="114.215" y1="344.032" y2="339.755" xlink:href="#a" gradientUnits="userSpaceOnUse" gradientTransform="translate(32.772 64.937) scale(.04023)"/>
  </defs>
  <g transform="matrix(9.90247 0 0 9.90247 -305.824 -713.386)">
    <path fill="#a2a4a4" d="M45.373 79.286a7.244 7.244 0 1 1-14.49 0 7.244 7.244 0 1 1 14.49 0z"/>
    <path fill="#7fc0c4" d="M45.123 79.286a6.994 6.994 0 1 1-13.99 0 6.994 6.994 0 1 1 13.99 0z"/>
    <path fill="#007c85" d="M44.622 79.286a6.494 6.494 0 1 1-12.988 0 6.494 6.494 0 1 1 12.988 0z"/>
    <path fill="#007c85" d="M44.622 79.286a6.494 6.494 0 1 1-12.988 0 6.494 6.494 0 1 1 12.988 0z"/>
    <path fill="#fff" fill-rule="evenodd" d="M33.546 75.802l.566.076.208.113 4.814 5.42 1.492.15-.623-.905-4.494-4.985-1.964-.02z"/>
    <path fill="url(#b)" fill-rule="evenodd" d="M33.546 75.802l.566.076.208.113 4.814 5.42 1.492.15-.623-.905-4.494-4.985-1.964-.02z"/>
    <path d="M43.935 82.195c-1.067 2.125-3.268 3.585-5.807 3.585-2.486 0-4.647-1.4-5.738-3.452 5.934-1.8 7.933-.7 11.545-.133z"/>
    <rect width=".428" height="5.88" x="40.194" y="-81.783" fill="#fff" transform="scale(1 -1)" ry="0"/>
    <path fill="#fff" fill-rule="evenodd" d="M38.995 75.79c.767-.022 1.065.308 1.227.74l.428-.085c.142-.29.25-.59 1.057-.656v-.2h-2.74zM32.2 81.938c3.95-1.058 8.168-.882 11.74.247l-.06.12c-2.56-.22-6.9-1.14-11.306.343-.127-.2-.263-.434-.374-.71z"/>
    <path fill="#c3dcda" fill-rule="evenodd" d="M33.5 82.583c.755.02 1.05-.31 1.21-.743l.422.086c.14.29.246.59 1.042.657v.2H33.47z"/>
    <path fill="#c3dcda" d="M34.68 76.373l.424.482v5.613h-.423z"/>
    <path fill="#fff" fill-rule="evenodd" d="M33.542 82.583c.775.05 1.09-.217 1.228-.743l.428.086c.142.29.25.59 1.056.657v.2h-2.74z"/>
    <path fill="#fff" d="M34.74 76.472l.43.478v5.518h-.43z"/>
  </g>
  <g font-weight="600" font-size="10.645" font-family="Myriad Pro" letter-spacing="-.416" word-spacing="0">
    <path d="M165.575 109.283V81.895c0-12.614-.204-22.728-.715-32.615l.41-.114c3.37 8.637 7.867 17.956 12.26 26.365l17.982 33.753h13.08V32.688h-11.65v26.706c0 11.705.205 21.592 1.125 31.82h-.204c-3.168-8.296-7.254-17.16-11.75-25.683L168.335 32.69h-14.407v76.595zM260.772 85.532c.204-1.25.41-3.296.41-5.91 0-12.16-5.314-26.933-21.458-26.933-15.94 0-24.317 14.432-24.317 29.773 0 16.933 9.502 27.956 25.646 27.956 7.152 0 13.078-1.478 17.37-3.523l-1.84-9.546c-3.883 1.478-7.97 2.5-13.793 2.5-8.072 0-15.02-4.318-15.326-14.318zm-33.31-9.774c.512-5.682 3.782-13.523 11.547-13.523 8.377 0 10.42 8.41 10.318 13.523zM269.31 43.598v10.34h-7.05v10.456h7.05v26.024c0 7.273 1.226 12.387 3.984 15.57 2.35 2.84 6.13 4.545 10.83 4.545 3.883 0 7.255-.682 9.094-1.477l-.204-10.57c-1.43.456-2.656.57-4.904.57-4.802 0-6.437-3.41-6.437-10.23V64.395h11.954V53.94h-11.954V39.733zM297.147 106.556c3.678 2.272 9.093 3.863 15.12 3.863 13.182 0 20.232-7.274 20.232-17.388-.103-8.182-4.19-13.296-13.284-16.82-6.335-2.613-8.685-4.204-8.685-7.727 0-3.41 2.454-5.91 6.95-5.91 4.393 0 8.48 1.82 10.523 3.183l2.554-9.773c-2.963-1.82-7.765-3.296-13.282-3.296-11.546 0-18.8 7.5-18.8 17.273 0 6.59 3.985 12.5 13.69 16.137 6.132 2.5 8.175 4.318 8.175 8.07 0 3.635-2.452 6.25-7.97 6.25-4.495 0-9.91-2.16-12.67-4.092zM374.844 97.237c-2.452 1.136-5.62 2.16-9.91 2.16-8.584 0-15.225-6.48-15.225-17.843-.103-10.114 5.62-17.955 15.223-17.955 4.496 0 7.46 1.02 9.502 2.158l2.248-10.57c-2.86-1.363-7.56-2.5-12.16-2.5-17.47 0-27.688 12.843-27.688 29.434 0 17.16 10.115 28.297 25.646 28.297 6.233 0 11.444-1.478 14.1-2.842zM422.78 76.1c0-12.16-4.597-23.41-20.536-23.41-7.867 0-14.304 2.385-17.983 4.886l2.454 9.09c3.37-2.385 8.48-4.09 13.384-4.09 8.787 0 10.115 6.023 10.115 9.66v.91c-18.39-.115-29.528 7.044-29.528 20.91 0 8.408 5.62 16.477 15.633 16.477 6.54 0 11.75-3.068 14.713-7.387h.308l.92 6.137h11.34c-.612-3.41-.816-8.296-.816-13.296zm-12.26 13.75c0 1.023 0 2.046-.307 3.068-1.226 3.978-4.802 7.615-9.91 7.615-3.986 0-7.153-2.5-7.153-7.955 0-8.41 8.48-10.456 17.37-10.342zM429.73 131.784H442.3v-28.638h.204c2.555 4.432 7.766 7.387 13.998 7.387 11.34 0 22.683-9.66 22.683-29.66 0-17.274-9.502-28.184-20.946-28.184-7.56 0-13.385 3.522-17.063 9.772h-.204l-.613-8.523h-11.034c.204 5.227.41 11.136.41 18.41zM442.3 77.577c0-1.137.204-2.387.41-3.523 1.328-6.137 6.13-10.342 11.34-10.342 8.072 0 12.364 7.955 12.364 17.73 0 10.908-4.7 18.295-12.67 18.295-5.415 0-9.808-4.09-11.137-9.773-.204-1.25-.306-2.5-.306-3.864zM528.758 85.532c.204-1.25.41-3.296.41-5.91 0-12.16-5.314-26.933-21.458-26.933-15.94 0-24.317 14.432-24.317 29.773 0 16.933 9.502 27.956 25.646 27.956 7.15 0 13.077-1.478 17.368-3.523l-1.84-9.546c-3.882 1.478-7.97 2.5-13.793 2.5-8.07 0-15.02-4.318-15.326-14.318zm-33.31-9.774c.512-5.682 3.782-13.523 11.547-13.523 8.378 0 10.42 8.41 10.32 13.523z" style="line-height:4.15837574px;-inkscape-font-specification:'Myriad Pro Semi-Bold'"/>
  </g>
</svg>
